# xmcd CD database file
# Copyright (C) 1996 Ti Kan
#
# Track frame offsets:
# 	150
# 	14777
# 	28600
# 	47827
# 	62422
# 	74045
# 	89987
# 	103315
# 	117660
# 	130642
#
# Disc length: 1951 seconds
#
# Revision: 1
# Processed by: cddbd v1.4b41PL1 Copyright (c) Steve Scherf et al.
# Submitted via: DiscPlay 3.4b1
#
DISCID=9b079d0a
DTITLE=Chris LeDoux - Whatcha Gonna Do With A Cowboy
DYEAR=1900
DGENRE=
TTITLE0=Call Of The Wild
TTITLE1=You Just Can't See Him From The Road
TTITLE2=Littlle Long-Haired Outlaw
TTITLE3=Making Ends Meet
TTITLE4=Whatcha Gonna Do With A Cowboy
TTITLE5=Hooked On An 8 Second Ride
TTITLE6=I'm Ready If You're Willing
TTITLE7=Look At You Girl
TTITLE8=Cadillac Ranch
TTITLE9=Western Skies
EXTD=
EXTT0=
EXTT1=
EXTT2=
EXTT3=
EXTT4=
EXTT5=
EXTT6=
EXTT7=
EXTT8=
EXTT9=
PLAYORDER=
